<?xml version="1.0" encoding="utf-8"?>
<!-- Generator: Adobe Illustrator 19.2.1, SVG Export Plug-In . SVG Version: 6.00 Build 0)  -->
<svg version="1.1" id="Layer_1" xmlns="http://www.w3.org/2000/svg" xmlns:xlink="http://www.w3.org/1999/xlink" x="0px" y="0px"
	 viewBox="0 0 400 399.6" style="enable-background:new 0 0 400 399.6;" xml:space="preserve">
<style type="text/css">
	.st0{clip-path:url(#SVGID_2_);}
	.st1{clip-path:url(#SVGID_4_);fill:#5393CF;}
	.st2{clip-path:url(#SVGID_6_);}
	.st3{clip-path:url(#SVGID_8_);fill:#278268;}
	.st4{clip-path:url(#SVGID_10_);}
	.st5{clip-path:url(#SVGID_12_);fill:#278268;}
	.st6{clip-path:url(#SVGID_14_);}
	.st7{opacity:0.6;clip-path:url(#SVGID_16_);fill:#FFFFFF;}
	.st8{clip-path:url(#SVGID_18_);}
	.st9{opacity:0.6;clip-path:url(#SVGID_20_);fill:#FFFFFF;}
</style>
<g>
	<g>
		<defs>
			<circle id="SVGID_1_" cx="200" cy="200" r="200"/>
		</defs>
		<clipPath id="SVGID_2_">
			<use xlink:href="#SVGID_1_"  style="overflow:visible;"/>
		</clipPath>
		<g class="st0">
			<defs>
				<rect id="SVGID_3_" width="400" height="400"/>
			</defs>
			<clipPath id="SVGID_4_">
				<use xlink:href="#SVGID_3_"  style="overflow:visible;"/>
			</clipPath>
			<rect x="-5" y="-5" class="st1" width="410" height="410"/>
		</g>
	</g>
	<g>
		<defs>
			<path id="SVGID_5_" d="M249,394c-15.7,3.9-32.1,6-49,6c-50.4,0-96.5-18.7-131.6-49.4c15.6,0.1,35.1,2.3,46.8-3.5
				c22.8-11.4-5.9-80.2-22.8-95.2c-16.9-15,0.1,70.1,0.1,70.1s-27.7,3.6-20.6-12.6c7.1-16.2-20.8-23.3-20.8-23.3
				s-37.3-51.7-19.8-83.6c13.5-24.6-8.8-38.2-25.3-50.7c4.9-19.9,12.9-38.7,23.3-55.8c1-0.6,1.6-0.9,1.6-0.9l55,5.4
				c24.7-8.6,16.2-28.4,37.9-37.8s27.2-9.1,48.5,0c21.3,9.1,13.3,19.3,29.7,33.5s25.9,17.9,51.3,36.8c25.4,18.9,35.9,10.5,44.6,34.5
				c8.7,23.9,2.2,38.6-11.9,55.6c-14.1,17-41.9,9.5-41.9,9.5s-25,46.3-37.9,45.4c-12.9-0.9,4-42.3-7.5-48.6
				c-11.5-6.3-32.8,1.2-41.5,21.6s-14.7,51.2,1.9,70.8s42.1,6.4,79.1,24.6s24.4,11.5,22.5,25.3C259.9,377,254.8,385.5,249,394
				L249,394z"/>
		</defs>
		<clipPath id="SVGID_6_">
			<use xlink:href="#SVGID_5_"  style="overflow:visible;"/>
		</clipPath>
		<g class="st2">
			<defs>
				<rect id="SVGID_7_" width="400" height="400"/>
			</defs>
			<clipPath id="SVGID_8_">
				<use xlink:href="#SVGID_7_"  style="overflow:visible;"/>
			</clipPath>
			<rect x="0.9" y="50.6" class="st3" width="305.8" height="354.4"/>
		</g>
	</g>
	<g>
		<defs>
			<path id="SVGID_9_" d="M395.6,157.9C377.9,75.3,309.1,11.6,223.9,1.4c-2.7,1.6-4.9,3.1-6.5,4.6c-18.7,16.8-25.4,27.7,7.2,54.3
				c32.7,26.6,65,9.6,97.9,31.3c32.8,21.6,18.7,52,46.3,63.7C376.7,158.6,386.1,159,395.6,157.9L395.6,157.9z"/>
		</defs>
		<clipPath id="SVGID_10_">
			<use xlink:href="#SVGID_9_"  style="overflow:visible;"/>
		</clipPath>
		<g class="st4">
			<defs>
				<rect id="SVGID_11_" width="400" height="400"/>
			</defs>
			<clipPath id="SVGID_12_">
				<use xlink:href="#SVGID_11_"  style="overflow:visible;"/>
			</clipPath>
			<rect x="196.8" y="-3.6" class="st5" width="203.7" height="167"/>
		</g>
	</g>
	<g>
		<defs>
			<path id="SVGID_13_" d="M304.5,370.6c48.7-29.9,83.6-80.1,93-138.9l-0.1-0.1c0,0-234.7-17.1-161.1,7.6s176.4,4.2,115.9,41.5
				c-60.5,37.3-91.1-32.1-105.7-4.8C236.4,294.8,278.1,343,304.5,370.6z"/>
		</defs>
		<clipPath id="SVGID_14_">
			<use xlink:href="#SVGID_13_"  style="overflow:visible;"/>
		</clipPath>
		<g class="st6">
			<defs>
				<rect id="SVGID_15_" width="400" height="400"/>
			</defs>
			<clipPath id="SVGID_16_">
				<use xlink:href="#SVGID_15_"  style="overflow:visible;"/>
			</clipPath>
			<rect x="217" y="220.8" class="st7" width="185.5" height="154.7"/>
		</g>
	</g>
	<g>
		<defs>
			<path id="SVGID_17_" d="M70.4,47.6C27.3,84.3,0,139,0,200c0,29.2,6.3,57,17.5,82c47.9-4.8,124-14.7,154.5-30.9
				c46.1-24.4-92,2.1-142.5-25.6c-50.5-27.7,160.7-6.6,287.2-18.5s-126.5-33.8-126.5-33.8s-124.6-25.2,102.5-25.2
				s-64.4-53.8-64.4-53.8S48,84.9,162,58.4C235.2,41.3,144.5,43.7,70.4,47.6L70.4,47.6z"/>
		</defs>
		<clipPath id="SVGID_18_">
			<use xlink:href="#SVGID_17_"  style="overflow:visible;"/>
		</clipPath>
		<g class="st8">
			<defs>
				<rect id="SVGID_19_" width="400" height="400"/>
			</defs>
			<clipPath id="SVGID_20_">
				<use xlink:href="#SVGID_19_"  style="overflow:visible;"/>
			</clipPath>
			<rect x="-5" y="39.8" class="st9" width="389.3" height="247.2"/>
		</g>
	</g>
</g>
</svg>
